<svg width="32" height="32" viewBox="0 0 32 32" fill="none" xmlns="http://www.w3.org/2000/svg">
<path fill-rule="evenodd" clip-rule="evenodd" d="M6.66661 12.0001C6.66661 9.52473 7.64994 7.15076 9.40028 5.40042C11.1506 3.65008 13.5246 2.66675 15.9999 2.66675C18.4753 2.66675 20.8493 3.65008 22.5996 5.40042C24.3499 7.15076 25.3333 9.52473 25.3333 12.0001V17.0187L27.7626 21.8774C27.8744 22.101 27.9273 22.3495 27.916 22.5993C27.9048 22.8491 27.8299 23.0919 27.6984 23.3045C27.567 23.5172 27.3833 23.6928 27.1649 23.8145C26.9465 23.9362 26.7006 24.0001 26.4506 24.0001H21.1653C20.8687 25.1444 20.2005 26.1578 19.2656 26.8813C18.3307 27.6048 17.1821 27.9973 15.9999 27.9973C14.8178 27.9973 13.6692 27.6048 12.7343 26.8813C11.7994 26.1578 11.1312 25.1444 10.8346 24.0001H5.54928C5.29925 24.0001 5.05336 23.9362 4.83497 23.8145C4.61658 23.6928 4.43293 23.5172 4.30147 23.3045C4.17002 23.0919 4.09511 22.8491 4.08388 22.5993C4.07264 22.3495 4.12545 22.101 4.23728 21.8774L6.66661 17.0187V12.0001ZM13.6906 24.0001C13.9247 24.4054 14.2613 24.742 14.6667 24.9761C15.072 25.2101 15.5319 25.3333 15.9999 25.3333C16.468 25.3333 16.9279 25.2101 17.3332 24.9761C17.7386 24.742 18.0752 24.4054 18.3093 24.0001H13.6906ZM15.9999 5.33341C14.2318 5.33341 12.5361 6.03579 11.2859 7.28604C10.0357 8.53628 9.33328 10.232 9.33328 12.0001V17.0187C9.33325 17.4325 9.23694 17.8406 9.05195 18.2107L7.49195 21.3334H24.5093L22.9493 18.2107C22.7638 17.8407 22.6671 17.4326 22.6666 17.0187V12.0001C22.6666 10.232 21.9642 8.53628 20.714 7.28604C19.4637 6.03579 17.7681 5.33341 15.9999 5.33341Z" fill="white"/>
<circle cx="26" cy="6" r="6" fill="#8455F4"/>
</svg>
