<svg width="32" height="32" viewBox="0 0 32 32" fill="none" xmlns="http://www.w3.org/2000/svg">
<g clip-path="url(#clip0_69_256)">
<path fill-rule="evenodd" clip-rule="evenodd" d="M10.0869 24.7271C10.0869 24.4378 10.1969 24.1603 10.3925 23.9557C10.5882 23.7512 10.8536 23.6362 11.1304 23.6362H19.4782C19.755 23.6362 20.0204 23.7512 20.2161 23.9557C20.4118 24.1603 20.5217 24.4378 20.5217 24.7271C20.5217 25.0165 20.4118 25.2939 20.2161 25.4985C20.0204 25.7031 19.755 25.818 19.4782 25.818H11.1304C10.8536 25.818 10.5882 25.7031 10.3925 25.4985C10.1969 25.2939 10.0869 25.0165 10.0869 24.7271Z" fill="white"/>
<path fill-rule="evenodd" clip-rule="evenodd" d="M10.713 0.363525H19.8957C20.2017 0.363525 20.4369 0.363525 20.6414 0.386798C21.5491 0.488458 22.3922 0.926104 23.0183 1.6207C23.6445 2.3153 24.0124 3.22107 24.0557 4.17443C24.8721 4.43177 25.589 4.95396 26.1027 5.66546C26.6165 6.37697 26.9004 7.24089 26.9134 8.13225C27.7496 8.39407 28.4717 8.80862 29.0616 9.4748C29.9687 10.5003 30.2497 11.7613 30.2609 13.2363C30.2706 14.6544 30.0299 16.4464 29.7294 18.6704L29.1172 23.1999C28.8835 24.9395 28.6929 26.3533 28.3965 27.4603C28.0863 28.6195 27.6285 29.5723 26.7826 30.3053C25.9423 31.0326 24.9461 31.3453 23.769 31.4937C22.6296 31.6363 21.1965 31.6363 19.4143 31.6363H11.1944C9.41078 31.6363 7.97774 31.6363 6.83965 31.4937C5.66122 31.3453 4.66505 31.0326 3.8247 30.3053C2.97878 29.5723 2.52105 28.6181 2.21078 27.4603C1.91444 26.3533 1.72383 24.9395 1.4887 23.1984L0.877915 18.6704C0.578784 16.445 0.335306 14.6544 0.346436 13.2363C0.357567 11.7613 0.63861 10.5003 1.54574 9.4748C2.13565 8.80862 2.85635 8.39553 3.69252 8.13225C3.70592 7.24096 3.99017 6.37723 4.50415 5.66599C5.01814 4.95475 5.73521 4.43289 6.55165 4.17589C6.59461 3.22227 6.96239 2.31615 7.58854 1.62125C8.2147 0.926354 9.05794 0.4885 9.96591 0.386798C10.1704 0.363525 10.4056 0.363525 10.7103 0.363525M5.82678 7.74971C7.11513 7.63625 8.69287 7.63625 10.5948 7.63625H20.0111C21.9117 7.63625 23.4894 7.63625 24.7791 7.74971C24.6828 7.30427 24.4444 6.90635 24.103 6.62138C23.7616 6.33642 23.3377 6.18136 22.9009 6.18171H7.70644C6.77565 6.18171 6.02018 6.86534 5.82957 7.74971M20.4202 2.55698C21.1854 2.64134 21.7906 3.23771 21.9395 3.99989H8.67061C8.74443 3.62172 8.93144 3.27791 9.20458 3.01825C9.47772 2.75858 9.82282 2.59652 10.1899 2.55553C10.2678 2.5468 10.3791 2.54534 10.7701 2.54534H19.8386C20.2282 2.54534 20.3395 2.5468 20.4188 2.55553M3.07896 10.9555C3.50052 10.4799 4.13357 10.1643 5.36487 9.99262C6.61844 9.81807 8.29774 9.81662 10.6741 9.81662H19.9346C22.311 9.81662 23.9903 9.81953 25.2438 9.99262C26.4751 10.1643 27.1082 10.4799 27.5297 10.9555C27.9416 11.421 28.1656 12.0537 28.1739 13.2523C28.1823 14.4886 27.9652 16.1177 27.6508 18.4537L27.0623 22.8173C26.8146 24.6515 26.6421 25.9199 26.3875 26.8712C26.1412 27.7875 25.8532 28.2748 25.4511 28.6224C25.0435 28.9773 24.4953 29.2043 23.52 29.3264C22.5197 29.4515 21.2132 29.453 19.3461 29.453H11.2626C9.39548 29.453 8.08904 29.4515 7.0887 29.3264C6.11478 29.2028 5.56522 28.9773 5.15757 28.6239C4.75548 28.2748 4.46748 27.7861 4.22122 26.8712C3.96661 25.9199 3.79409 24.6515 3.54644 22.8173L2.95791 18.4537C2.64348 16.1192 2.42644 14.4886 2.43478 13.2523C2.44313 12.0537 2.66713 11.4195 3.07896 10.9555Z" fill="white"/>
<ellipse cx="23.6521" cy="8.72727" rx="8.34783" ry="8.72727" fill="#8455F4"/>
</g>
<defs>
<clipPath id="clip0_69_256">
<rect width="32" height="32" fill="white"/>
</clipPath>
</defs>
</svg>
