<svg width="24" height="25" viewBox="0 0 24 25" fill="none" xmlns="http://www.w3.org/2000/svg">
<path fill-rule="evenodd" clip-rule="evenodd" d="M11.9705 0.5C11.4459 0.5 11.0085 0.5 10.6501 0.522326C10.2837 0.53677 9.92245 0.608433 9.58078 0.734419C9.1873 0.888565 8.82975 1.11459 8.52854 1.39959C8.22734 1.6846 7.98838 2.02299 7.82531 2.39544C7.65436 2.78614 7.60838 3.19916 7.58952 3.64791C7.58763 3.81202 7.54175 3.973 7.45617 4.11573C7.37059 4.25845 7.24812 4.37826 7.10025 4.46391C6.94803 4.54261 6.77718 4.58339 6.60374 4.58241C6.4303 4.58143 6.25997 4.53873 6.10875 4.45833C5.68904 4.24847 5.2882 4.07991 4.84491 4.02409C4.42278 3.97152 3.99384 3.99819 3.58259 4.10257C3.17135 4.20696 2.78584 4.38701 2.44809 4.63247C2.16251 4.85001 1.91675 5.11061 1.72067 5.40381C1.52025 5.68735 1.30096 6.04567 1.03923 6.47544L1.00976 6.52456C0.746853 6.95433 0.528745 7.31265 0.370765 7.61851C0.205711 7.93777 0.0760259 8.25256 0.0288676 8.60084C-0.0836046 9.4079 0.147093 10.2242 0.67022 10.8702C0.94256 11.2062 1.29743 11.4507 1.69827 11.6896C1.84772 11.7732 1.97223 11.8915 2.06009 12.0333C2.14795 12.1751 2.19627 12.3357 2.20051 12.5C2.19627 12.6643 2.14795 12.8249 2.06009 12.9667C1.97223 13.1085 1.84772 13.2268 1.69827 13.3104C1.29743 13.5493 0.943739 13.7938 0.67022 14.1298C0.410987 14.4496 0.220819 14.8146 0.110573 15.204C0.000327087 15.5933 -0.027837 15.9995 0.0276888 16.3992C0.076026 16.7474 0.204532 17.0622 0.369586 17.3815C0.528746 17.6873 0.746853 18.0457 1.00976 18.4754L1.03923 18.5246C1.30096 18.9543 1.52025 19.3127 1.72067 19.5962C1.92935 19.8898 2.15335 20.1543 2.44809 20.3664C2.78575 20.6121 3.17122 20.7923 3.58247 20.8969C3.99372 21.0015 4.4227 21.0283 4.84491 20.9759C5.2882 20.9201 5.68904 20.7527 6.10875 20.5417C6.2598 20.4614 6.42992 20.4187 6.60315 20.4177C6.77638 20.4168 6.94703 20.4575 7.09907 20.5361C7.24776 20.6211 7.371 20.7407 7.45706 20.8835C7.54311 21.0263 7.58912 21.1877 7.5907 21.3521C7.60838 21.8008 7.65436 22.2139 7.82649 22.6046C7.98929 22.9771 8.22801 23.3157 8.52902 23.6009C8.83002 23.886 9.18741 24.1123 9.58078 24.2667C9.92268 24.4007 10.2764 24.4531 10.6501 24.4766C11.0085 24.5 11.4459 24.5 11.9705 24.5H12.0295C12.5541 24.5 12.9915 24.5 13.3499 24.4777C13.7248 24.4531 14.0773 24.4007 14.4192 24.2656C14.8127 24.1114 15.1702 23.8854 15.4715 23.6004C15.7727 23.3154 16.0116 22.977 16.1747 22.6046C16.3456 22.2139 16.3916 21.8008 16.4105 21.3521C16.4122 21.1878 16.458 21.0266 16.5435 20.8836C16.6291 20.7407 16.7517 20.6207 16.8997 20.535C17.0521 20.4564 17.223 20.4159 17.3964 20.417C17.5698 20.4182 17.7401 20.4611 17.8912 20.5417C18.311 20.7515 18.7118 20.9201 19.1551 20.9748C20.0075 21.0813 20.8696 20.8629 21.5519 20.3675C21.8466 20.1532 22.0707 19.8898 22.2793 19.5962C22.4797 19.3127 22.699 18.9543 22.9608 18.5246L22.9902 18.4754C23.2531 18.0457 23.4713 17.6873 23.6292 17.3815C23.7943 17.0622 23.924 16.7463 23.9711 16.3992C24.0836 15.5921 23.8529 14.7758 23.3298 14.1298C23.0574 13.7938 22.7026 13.5493 22.3017 13.3104C22.1523 13.2268 22.0278 13.1085 21.9399 12.9667C21.8521 12.8249 21.8037 12.6643 21.7995 12.5C21.7995 12.1897 21.9787 11.8816 22.3017 11.6896C22.7026 11.4507 23.0563 11.2062 23.3298 10.8702C23.589 10.5504 23.7792 10.1854 23.8894 9.79604C23.9997 9.40666 24.0278 9.00053 23.9723 8.60084C23.9162 8.25782 23.8007 7.92591 23.6304 7.61851C23.4291 7.24763 23.2156 6.8828 22.9902 6.52456L22.9608 6.47544C22.7454 6.11163 22.5181 5.75425 22.2793 5.40381C22.0833 5.11092 21.8375 4.85068 21.5519 4.63358C21.2142 4.38794 20.8288 4.20768 20.4175 4.1031C20.0063 3.99852 19.5773 3.97168 19.1551 4.02409C18.7118 4.07991 18.311 4.24735 17.8912 4.45833C17.7402 4.53854 17.5701 4.58112 17.3968 4.5821C17.2236 4.58308 17.053 4.54241 16.9009 4.46391C16.7526 4.37853 16.6297 4.25884 16.5437 4.11609C16.4577 3.97335 16.4114 3.81223 16.4093 3.64791C16.3916 3.19916 16.3456 2.78614 16.1735 2.39544C16.0107 2.02288 15.772 1.68434 15.471 1.39915C15.17 1.11395 14.8126 0.887699 14.4192 0.733302C14.0773 0.599349 13.7236 0.546884 13.3499 0.523442C12.9915 0.5 12.5541 0.5 12.0295 0.5H11.9705ZM10.2575 2.28047C10.3483 2.24474 10.4862 2.21237 10.7703 2.1934C11.0615 2.17442 11.4388 2.17442 12 2.17442C12.5612 2.17442 12.9384 2.17442 13.2297 2.1934C13.5138 2.21237 13.6517 2.24474 13.7425 2.28047C14.1044 2.42223 14.3909 2.69349 14.5407 3.03619C14.5878 3.14335 14.6267 3.31191 14.642 3.71042C14.6774 4.59451 15.1596 5.44623 16.0155 5.91395C16.8715 6.38279 17.8912 6.35154 18.7177 5.93851C19.0902 5.75209 19.2636 5.69963 19.3862 5.68512C19.7735 5.63665 20.1654 5.73583 20.4755 5.96084C20.5533 6.01777 20.6524 6.11488 20.8115 6.33814C20.9754 6.56809 21.164 6.8773 21.4446 7.33721C21.7252 7.79712 21.9127 8.10744 22.0412 8.35526C22.1673 8.59749 22.2062 8.72698 22.218 8.81963C22.2692 9.1864 22.1645 9.5574 21.9268 9.85107C21.8514 9.94372 21.717 10.0598 21.3609 10.2719C20.5687 10.743 20.0311 11.5646 20.0311 12.5C20.0311 13.4354 20.5687 14.257 21.3609 14.7281C21.717 14.9402 21.8514 15.0563 21.9268 15.1489C22.165 15.4425 22.2687 15.8131 22.218 16.1804C22.2062 16.273 22.1661 16.4036 22.0412 16.6447C21.9127 16.8937 21.7252 17.2029 21.4446 17.6628C21.164 18.1227 20.9742 18.4319 20.8115 18.6619C20.6524 18.8851 20.5533 18.9822 20.4755 19.0392C20.1654 19.2642 19.7735 19.3633 19.3862 19.3149C19.2636 19.3004 19.0914 19.2479 18.7177 19.0615C17.8924 18.6485 16.8715 18.6172 16.0155 19.0849C15.1596 19.5538 14.6774 20.4055 14.642 21.2896C14.6267 21.6881 14.5878 21.8567 14.5407 21.9638C14.4666 22.1333 14.358 22.2872 14.221 22.4169C14.0841 22.5466 13.9215 22.6494 13.7425 22.7195C13.6517 22.7553 13.5138 22.7876 13.2297 22.8066C12.9384 22.8256 12.5612 22.8256 12 22.8256C11.4388 22.8256 11.0615 22.8256 10.7703 22.8066C10.4862 22.7876 10.3483 22.7553 10.2575 22.7195C10.0785 22.6494 9.91593 22.5466 9.77898 22.4169C9.64202 22.2872 9.53341 22.1333 9.45935 21.9638C9.41219 21.8567 9.37328 21.6881 9.35796 21.2896C9.32259 20.4055 8.84039 19.5538 7.98447 19.086C7.12855 18.6172 6.10875 18.6485 5.2823 19.0615C4.90975 19.2479 4.73644 19.3004 4.61383 19.3149C4.22647 19.3633 3.83463 19.2642 3.52448 19.0392C3.44666 18.9822 3.34763 18.8851 3.18847 18.6619C2.96672 18.335 2.75559 18.0019 2.55537 17.6628C2.27478 17.2029 2.08733 16.8926 1.95882 16.6447C1.83267 16.4025 1.79377 16.273 1.78198 16.1804C1.73079 15.8136 1.83554 15.4426 2.07318 15.1489C2.14863 15.0563 2.28303 14.9402 2.63908 14.7281C3.43134 14.257 3.96894 13.4354 3.96894 12.5C3.96894 11.5646 3.43134 10.743 2.63908 10.2719C2.28303 10.0598 2.14863 9.94372 2.07318 9.85107C1.83554 9.5574 1.73079 9.1864 1.78198 8.81963C1.79377 8.72698 1.83385 8.59637 1.95882 8.35526C2.08733 8.10633 2.27478 7.79712 2.55537 7.33721C2.83597 6.8773 3.02578 6.56809 3.18847 6.33814C3.34763 6.11488 3.44666 6.01777 3.52448 5.96084C3.83463 5.73583 4.22647 5.63665 4.61383 5.68512C4.73644 5.69963 4.90857 5.75209 5.2823 5.93851C6.10757 6.35154 7.12855 6.38279 7.98447 5.91395C8.84039 5.44623 9.32259 4.59451 9.35796 3.71042C9.37328 3.31191 9.41219 3.14335 9.45935 3.03619C9.60907 2.69349 9.89556 2.42223 10.2575 2.28047Z" fill="#8A8A8A"/>
</svg>
