<svg width="24" height="24" viewBox="0 0 24 24" fill="none" xmlns="http://www.w3.org/2000/svg">
<path d="M2.66667 1.33333C2.66667 0.979711 2.52619 0.640573 2.27614 0.390524C2.02609 0.140476 1.68696 0 1.33333 0C0.979711 0 0.640573 0.140476 0.390524 0.390524C0.140476 0.640573 0 0.979711 0 1.33333V19.3333C0 20.571 0.491666 21.758 1.36684 22.6332C2.24201 23.5083 3.42899 24 4.66667 24H22.6667C23.0203 24 23.3594 23.8595 23.6095 23.6095C23.8595 23.3594 24 23.0203 24 22.6667C24 22.313 23.8595 21.9739 23.6095 21.7239C23.3594 21.4738 23.0203 21.3333 22.6667 21.3333H4.66667C4.13623 21.3333 3.62753 21.1226 3.25245 20.7475C2.87738 20.3725 2.66667 19.8638 2.66667 19.3333V1.33333ZM16 4C15.6464 4 15.3072 4.14048 15.0572 4.39052C14.8071 4.64057 14.6667 4.97971 14.6667 5.33333C14.6667 5.68696 14.8071 6.02609 15.0572 6.27614C15.3072 6.52619 15.6464 6.66667 16 6.66667H18.7813L13.6667 11.7813L11.276 9.39067C11.026 9.14071 10.6869 9.00028 10.3333 9.00028C9.97978 9.00028 9.6407 9.14071 9.39067 9.39067L5.05733 13.724C4.92999 13.847 4.82841 13.9941 4.75853 14.1568C4.68865 14.3195 4.65187 14.4944 4.65033 14.6715C4.64879 14.8485 4.68253 15.0241 4.74957 15.1879C4.81661 15.3518 4.91562 15.5007 5.04081 15.6259C5.166 15.7511 5.31487 15.8501 5.47873 15.9171C5.64259 15.9841 5.81816 16.0179 5.9952 16.0163C6.17224 16.0148 6.3472 15.978 6.50987 15.9081C6.67254 15.8383 6.81967 15.7367 6.94267 15.6093L10.3333 12.2187L12.724 14.6093C12.974 14.8593 13.3131 14.9997 13.6667 14.9997C14.0202 14.9997 14.3593 14.8593 14.6093 14.6093L20.668 8.552L20.6667 11.3333C20.6667 11.687 20.8071 12.0261 21.0572 12.2761C21.3072 12.5262 21.6464 12.6667 22 12.6667C22.3536 12.6667 22.6928 12.5262 22.9428 12.2761C23.1929 12.0261 23.3333 11.687 23.3333 11.3333L23.336 5.33333C23.336 4.97971 23.1955 4.64057 22.9455 4.39052C22.6954 4.14048 22.3563 4 22.0027 4H16Z" fill="white"/>
</svg>
