<svg width="17" height="17" viewBox="0 0 17 17" fill="none" xmlns="http://www.w3.org/2000/svg">
<path d="M3.77778 4.54968C3.45952 4.54968 3.1543 4.42325 2.92925 4.19821C2.70421 3.97317 2.57778 3.66794 2.57778 3.34968C2.57778 3.03142 2.70421 2.7262 2.92925 2.50115C3.1543 2.27611 3.45952 2.14968 3.77778 2.14968C4.09604 2.14968 4.40127 2.27611 4.62631 2.50115C4.85136 2.7262 4.97778 3.03142 4.97778 3.34968C4.97778 3.66794 4.85136 3.97317 4.62631 4.19821C4.40127 4.42325 4.09604 4.54968 3.77778 4.54968ZM16.5058 8.21368L9.30578 1.01368C9.01778 0.725683 8.61778 0.549683 8.17778 0.549683H2.57778C1.68978 0.549683 0.977783 1.26168 0.977783 2.14968V7.74968C0.977783 8.18968 1.15378 8.58968 1.44978 8.87768L8.64178 16.0777C8.93778 16.3657 9.33778 16.5497 9.77778 16.5497C10.2178 16.5497 10.6178 16.3657 10.9058 16.0777L16.5058 10.4777C16.8018 10.1897 16.9778 9.78968 16.9778 9.34968C16.9778 8.90168 16.7938 8.50168 16.5058 8.21368Z" fill="#E3E3E3"/>
</svg>
