<svg width="24" height="25" viewBox="0 0 24 25" fill="none" xmlns="http://www.w3.org/2000/svg">
<path fill-rule="evenodd" clip-rule="evenodd" d="M0.624 7.4876C0 8.624 0 9.998 0 12.7436V14.57C0 19.25 -1.19209e-07 21.5912 1.4064 23.0456C2.8116 24.5 5.0748 24.5 9.6 24.5H14.4C18.9252 24.5 21.1884 24.5 22.5936 23.0456C24 21.5912 24 19.2512 24 14.57V12.7448C24 9.998 24 8.6252 23.376 7.4876C22.7544 6.3488 21.6156 5.6432 19.3392 4.2296L16.9392 2.7404C14.5332 1.2464 13.3296 0.5 12 0.5C10.6704 0.5 9.468 1.2464 7.0608 2.7404L4.6608 4.2296C2.3844 5.6432 1.2468 6.3488 0.624 7.4876ZM11.1 19.7C11.1 19.9387 11.1948 20.1676 11.3636 20.3364C11.5324 20.5052 11.7613 20.6 12 20.6C12.2387 20.6 12.4676 20.5052 12.6364 20.3364C12.8052 20.1676 12.9 19.9387 12.9 19.7V16.1C12.9 15.8613 12.8052 15.6324 12.6364 15.4636C12.4676 15.2948 12.2387 15.2 12 15.2C11.7613 15.2 11.5324 15.2948 11.3636 15.4636C11.1948 15.6324 11.1 15.8613 11.1 16.1V19.7Z" fill="white"/>
</svg>
