<svg width="26" height="27" viewBox="0 0 26 27" fill="none" xmlns="http://www.w3.org/2000/svg">
<path d="M20.6909 23.8782H23.4648C23.7088 23.8822 23.9501 23.8242 24.168 23.7093C24.386 23.5943 24.5742 23.4258 24.7165 23.218C24.8588 23.0103 24.9509 22.7695 24.9851 22.5164C25.0193 22.2632 24.9944 22.0051 24.9127 21.7642C24.2053 20.178 23.0855 18.8328 21.6817 17.883C20.278 16.9332 18.6471 16.4172 16.9763 16.3943M16.9763 12.6435C17.6007 12.6437 18.219 12.515 18.7959 12.2648C19.3728 12.0145 19.897 11.6476 20.3386 11.1851C20.7802 10.7225 21.1304 10.1734 21.3694 9.56895C21.6084 8.96453 21.7314 8.3167 21.7314 7.66246C21.7331 7.00707 21.6114 6.35778 21.3731 5.75179C21.1349 5.1458 20.7849 4.59502 20.3432 4.13103C19.9014 3.66703 19.3767 3.29894 18.7989 3.04785C18.2211 2.79676 17.6018 2.6676 16.9763 2.66778M9.54846 12.7999C10.9779 12.7963 12.3476 12.1987 13.357 11.1382C14.3665 10.0777 14.9332 8.64092 14.9328 7.14314C14.9328 5.64649 14.3654 4.21113 13.3554 3.15284C12.3454 2.09454 10.9755 1.5 9.54716 1.5C8.11879 1.5 6.74893 2.09454 5.73892 3.15284C4.72891 4.21113 4.16149 5.64649 4.16149 7.14314C4.16149 8.64092 4.72853 10.0775 5.73821 11.1378C6.74788 12.198 8.11772 12.7953 9.54716 12.7985M15.627 25.5C16.084 25.4994 16.5319 25.3662 16.9211 25.1152C17.3103 24.8642 17.6256 24.5052 17.8321 24.078C18.0385 23.6508 18.1281 23.1721 18.0909 22.6948C18.0536 22.2176 17.8911 21.7604 17.6211 21.374C16.6757 20.0584 15.4583 18.9841 14.0603 18.2316C12.6622 17.4792 11.1197 17.0681 9.54846 17.0292C7.97707 17.0682 6.43452 17.4796 5.03645 18.2323C3.63838 18.985 2.42107 20.0595 1.4758 21.3754C1.20678 21.7618 1.04492 22.2186 1.00808 22.6954C0.971241 23.1721 1.06086 23.6503 1.26705 24.077C1.47323 24.5037 1.78796 24.8625 2.17647 25.1136C2.56499 25.3647 3.01218 25.4984 3.46866 25.5H15.627Z" stroke="#8A8A8A" stroke-width="1.5" stroke-linecap="round" stroke-linejoin="round"/>
</svg>
