<svg width="24" height="25" viewBox="0 0 24 25" fill="none" xmlns="http://www.w3.org/2000/svg">
<path d="M12.0035 0.5C13.8162 0.501047 15.6051 0.912506 17.236 1.7035C18.8669 2.49449 20.2974 3.64448 21.4201 5.06715C22.5429 6.48983 23.3288 8.14825 23.7189 9.91796C24.1089 11.6877 24.0929 13.5227 23.6721 15.2854C23.2514 17.048 22.4368 18.6925 21.2894 20.0955C20.142 21.4984 18.6917 22.6233 17.0473 23.3858C15.4029 24.1483 13.6071 24.5286 11.7947 24.4982C9.98222 24.4677 8.20023 24.0272 6.5824 23.2099L6.40085 23.1124L0.931769 24.4774C0.826516 24.5038 0.716772 24.5071 0.610113 24.4871C0.503454 24.467 0.402418 24.4241 0.313978 24.3612C0.225538 24.2983 0.1518 24.217 0.097852 24.1228C0.0439039 24.0287 0.0110304 23.9239 0.00150032 23.8159V23.6929L0.0225067 23.5684L1.3879 18.1024L1.29337 17.9224C0.608456 16.5705 0.185888 15.1011 0.048014 13.5919L0.010503 13.0189L0 12.4999C0 9.31735 1.26465 6.26512 3.51573 4.0147C5.76682 1.76427 8.81995 0.5 12.0035 0.5ZM12.0035 1.99999C10.1706 1.99969 8.36963 2.47888 6.77942 3.38994C5.18921 4.301 3.86516 5.61221 2.93884 7.19327C2.01253 8.77433 1.5162 10.5702 1.49918 12.4024C1.48216 14.2346 1.94504 16.0394 2.84182 17.6374C2.91144 17.7617 2.94423 17.9032 2.93635 18.0454L2.91534 18.1864L1.78101 22.7179L6.31833 21.5869C6.41055 21.5641 6.50628 21.559 6.60041 21.5719L6.73695 21.6034L6.86749 21.6619C8.26791 22.4456 9.82937 22.8981 11.432 22.9846C13.0346 23.0711 14.6357 22.7892 16.1124 22.1607C17.589 21.5322 18.902 20.5738 19.9504 19.359C20.9988 18.1442 21.7548 16.7053 22.1603 15.1529C22.5658 13.6005 22.6101 11.9758 22.2897 10.4037C21.9692 8.83151 21.2927 7.35367 20.312 6.08362C19.3312 4.81358 18.0724 3.78512 16.6321 3.07723C15.1918 2.36933 13.6084 2.00082 12.0035 1.99999ZM12.7537 13.9999C12.9412 13.9996 13.122 14.0694 13.2605 14.1957C13.399 14.3219 13.4853 14.4955 13.5022 14.6821C13.5192 14.8688 13.4656 15.055 13.352 15.2042C13.2385 15.3533 13.0732 15.4545 12.8887 15.4879L12.7537 15.4999H8.25239C8.06491 15.5003 7.8841 15.4304 7.74556 15.3041C7.60702 15.1779 7.5208 15.0043 7.50386 14.8177C7.48692 14.631 7.5405 14.4448 7.65404 14.2957C7.76759 14.1465 7.93287 14.0453 8.11735 14.0119L8.25239 13.9999H12.7537ZM15.7546 9.49995C15.942 9.4996 16.1228 9.56944 16.2614 9.69571C16.3999 9.82198 16.4861 9.99552 16.5031 10.1822C16.52 10.3688 16.4664 10.5551 16.3529 10.7042C16.2394 10.8533 16.0741 10.9545 15.8896 10.9879L15.7546 10.9999H8.25239C8.06491 11.0003 7.8841 10.9304 7.74556 10.8042C7.60702 10.6779 7.5208 10.5044 7.50386 10.3177C7.48692 10.1311 7.5405 9.94483 7.65404 9.7957C7.76759 9.64656 7.93287 9.54534 8.11735 9.51195L8.25239 9.49995H15.7546Z" fill="#8A8A8A"/>
</svg>
